<?xml version="1.0" encoding="UTF-8" standalone="no"?>
<!-- Created with Inkscape (http://www.inkscape.org/) -->

<svg
   xmlns:osb="http://www.openswatchbook.org/uri/2009/osb"
   xmlns:dc="http://purl.org/dc/elements/1.1/"
   xmlns:cc="http://creativecommons.org/ns#"
   xmlns:rdf="http://www.w3.org/1999/02/22-rdf-syntax-ns#"
   xmlns:svg="http://www.w3.org/2000/svg"
   xmlns="http://www.w3.org/2000/svg"
   xmlns:xlink="http://www.w3.org/1999/xlink"
   xmlns:sodipodi="http://sodipodi.sourceforge.net/DTD/sodipodi-0.dtd"
   xmlns:inkscape="http://www.inkscape.org/namespaces/inkscape"
   width="744.09448819"
   height="1052.3622047"
   id="svg2"
   version="1.1"
   inkscape:version="0.48.5 r10040"
   sodipodi:docname="ironic_mascot_vector_color.svg"
   inkscape:export-filename="/home/lucasagomes/Pictures/ironic_mascot_vector_color.png"
   inkscape:export-xdpi="90"
   inkscape:export-ydpi="90">
  <defs
     id="defs4">
    <linearGradient
       id="linearGradient5361"
       osb:paint="solid">
      <stop
         style="stop-color:#000000;stop-opacity:1;"
         offset="0"
         id="stop5363" />
    </linearGradient>
    <linearGradient
       id="linearGradient5353"
       osb:paint="solid">
      <stop
         style="stop-color:#000000;stop-opacity:1;"
         offset="0"
         id="stop5355" />
    </linearGradient>
    <linearGradient
       id="linearGradient5345"
       osb:paint="solid">
      <stop
         style="stop-color:#000000;stop-opacity:1;"
         offset="0"
         id="stop5347" />
    </linearGradient>
    <linearGradient
       id="linearGradient5337"
       osb:paint="solid">
      <stop
         style="stop-color:#000000;stop-opacity:1;"
         offset="0"
         id="stop5339" />
    </linearGradient>
    <linearGradient
       inkscape:collect="always"
       id="linearGradient5325"
       osb:paint="gradient">
      <stop
         style="stop-color:#000000;stop-opacity:1;"
         offset="0"
         id="stop5327" />
      <stop
         style="stop-color:#000000;stop-opacity:0;"
         offset="1"
         id="stop5329" />
    </linearGradient>
    <linearGradient
       id="linearGradient3885"
       osb:paint="solid">
      <stop
         style="stop-color:#ffffff;stop-opacity:1;"
         offset="0"
         id="stop3887" />
    </linearGradient>
    <linearGradient
       inkscape:collect="always"
       xlink:href="#linearGradient5337"
       id="linearGradient5333"
       x1="311.18326"
       y1="407.6326"
       x2="417.00839"
       y2="407.6326"
       gradientUnits="userSpaceOnUse" />
    <linearGradient
       inkscape:collect="always"
       xlink:href="#linearGradient5337"
       id="linearGradient5341"
       x1="339.12775"
       y1="550.93341"
       x2="347.85666"
       y2="550.93341"
       gradientUnits="userSpaceOnUse" />
    <linearGradient
       inkscape:collect="always"
       xlink:href="#linearGradient5337"
       id="linearGradient5349"
       x1="384.88467"
       y1="538.35229"
       x2="392.66107"
       y2="538.35229"
       gradientUnits="userSpaceOnUse" />
    <linearGradient
       inkscape:collect="always"
       xlink:href="#linearGradient5345"
       id="linearGradient5357"
       x1="299.63425"
       y1="364.96487"
       x2="311.68661"
       y2="364.96487"
       gradientUnits="userSpaceOnUse" />
    <linearGradient
       inkscape:collect="always"
       xlink:href="#linearGradient5361"
       id="linearGradient5365"
       x1="427.97463"
       y1="333.02534"
       x2="446.13331"
       y2="333.02534"
       gradientUnits="userSpaceOnUse" />
  </defs>
  <sodipodi:namedview
     id="base"
     pagecolor="#ffffff"
     bordercolor="#666666"
     borderopacity="1.0"
     inkscape:pageopacity="0"
     inkscape:pageshadow="2"
     inkscape:zoom="1.28"
     inkscape:cx="406.3723"
     inkscape:cy="717.92868"
     inkscape:document-units="px"
     inkscape:current-layer="layer1"
     showgrid="false"
     inkscape:window-width="1920"
     inkscape:window-height="1014"
     inkscape:window-x="0"
     inkscape:window-y="27"
     inkscape:window-maximized="1" />
  <metadata
     id="metadata7">
    <rdf:RDF>
      <cc:Work
         rdf:about="">
        <dc:format>image/svg+xml</dc:format>
        <dc:type
           rdf:resource="http://purl.org/dc/dcmitype/StillImage" />
        <dc:title />
      </cc:Work>
    </rdf:RDF>
  </metadata>
  <g
     inkscape:label="Layer 1"
     inkscape:groupmode="layer"
     id="layer1">
    <path
       style="fill:#000000"
       d="m 498.18689,177.4652 c -77.37243,-8.25605 -165.58509,-4.26296 -237.68827,53.13996 -2.06944,0 -6.64564,-4.4872 -10.16614,-9.94754 -10.86435,-13.86626 -22.27587,-28.59208 -38.87673,-30.34223 -99.14076,-8.57717 -99.97417,131.82334 -58.22895,187.73155 0.66304,3.81879 -6.80192,14.41667 -17.83732,39.21077 -12.55172,23.27562 -11.98022,56.05529 -2.87844,76.19124 6.92347,13.91613 35.24218,56.74229 48.62608,75.28989 -23.32616,-15.51708 -90.085055,7.04074 -109.901562,-13.98992 9.629283,-21.85166 30.239652,-60.28108 37.305942,-68.5965 2.13825,-1.38207 6.89925,-3.78793 8.21836,-4.76605 6.29417,-8.16135 4.69199,-26.42718 -3.77166,-29.15345 -2.72384,-0.71237 -8.99877,1.44984 -14.21521,4.71193 -6.879215,4.30188 -8.73816,9.07362 -7.39719,16.81747 2.908782,14.19552 -31.232926,64.34254 -37.05653,79.26486 -0.945256,2.42265 -2.534758,-8.74166 -8.881754,-8.33519 -6.939038,2.29053 -16.294775,3.68362 -22.24527,16.28778 -6.645991,14.07774 1.483076,23.13831 5.793521,32.05611 4.87835,13.93045 -41.839018,56.28187 -14.176107,63.74438 11.879477,1.66525 23.572245,-32.26048 33.415348,-49.75228 3.719101,6.74718 49.115191,9.96537 74.154332,21.37217 27.98651,12.74944 43.62558,17.4946 68.70529,34.56673 3.52934,2.40254 4.01442,11.62 4.1812,15.93246 2.60489,67.17717 31.79986,137.86025 51.95122,160.6359 -54.75944,72.37831 111.48712,27.14721 141.93213,12.49688 28.29554,25.71277 127.01014,34.76213 158.90726,20.23246 15.05122,-6.85604 13.34725,-21.59091 -14.19238,-37.4571 52.13636,-57.72698 18.06942,-139.98678 18.31252,-202.45473 7.51448,17.76361 39.10035,44.9765 50.8804,53.36224 1.93212,3.50957 -7.34901,10.30072 -13.63445,20.43066 -1.9135,3.08326 -2.74323,7.54297 -1.83103,9.92016 2.56842,6.69276 11.2312,5.13921 19.97706,-3.60735 5.73851,-5.73799 10.4633,-7.97979 17.02559,-7.97979 17.14795,0 30.1586,-18.16132 27.43766,-38.01376 -1.04058,-7.59404 -1.78145,-11.50869 0.38251,-12.89898 5.07145,-12.30099 42.88389,-50.08152 65.83402,-75.95424 5.31044,-5.98688 13.35328,-8.10687 16.00077,-12.26164 3.44012,-5.40035 0.77551,-18.94551 -1.69445,-22.49129 -4.87835,-6.42648 -20.81317,-5.23663 -26.39909,0.56031 -2.10328,2.18277 -3.99291,10.09608 -4.93283,13.84178 -16.46337,23.71523 -49.24314,71.2982 -63.31972,80.23601 -23.71174,-29.70089 -66.34946,-68.30554 -67.0091,-94.91137 18.25883,-63.21305 46.50234,-130.40692 34.26974,-192.11832 -3.35102,-15.64302 -3.25536,-16.81031 1.99493,-22.51856 C 636.02047,291.28622 646.82027,238.98012 631.68361,206.527 603.399,143.57561 550.93506,127.05276 498.18689,177.4652 z m 131.20761,57.56592 c 2.14272,35.95797 -12.49985,77.39201 -28.04316,81.72661 -7.26514,0 -5.56003,-7.83035 2.60987,-26.3036 8.56702,-19.37147 11.58023,-53.74738 6.55879,-75.18023 -6.413,-27.3747 -19.72379,-41.48242 -44.05327,-46.73146 -9.76002,-2.10563 -30.94994,3.22947 -50.8238,13.30203 3.47004,-13.68612 20.41729,-25.8819 38.43186,-27.90909 30.3147,-3.41138 71.53389,28.77031 75.31971,81.09574 z m -37.6149,60.4446 c -7.48385,-0.8231 -14.01704,-24.16972 -18.28953,-32.4046 -4.46646,-8.93781 -17.30701,-25.11147 -27.4513,-35.81368 -14.80916,-15.62307 -25.13559,-25.22662 -23.8952,-30.16708 15.64808,-14.04231 39.99881,-20.24832 51.63204,-5.32452 6.81588,10.30188 4.91987,15.58774 6.38791,17.57488 1.78391,2.41486 4.52697,0.85918 14.44029,5.01903 4.81985,16.36989 13.97366,60.05269 -2.82421,81.11597 z M 423.2935,188.24623 c 35.37714,1.03225 75.46515,1.49486 103.23328,28.00003 17.88786,16.66225 31.51434,32.16429 41.49761,52.72778 15.12653,31.03887 27.31917,69.63533 29.07737,99.22925 2.00603,45.16601 -9.43052,92.04833 -22.24519,125.81978 -4.12828,9.56632 -20.25515,61.62509 -27.05514,87.36874 -20.79412,50.14424 18.18406,173.17162 -5.19764,224.34427 -4.17516,9.13763 -8.70177,17.3872 -17.67614,21.00959 -20.67124,-11.02858 -51.86963,-19.30307 -91.08532,-23.25647 9.90922,-11.69085 19.95721,-22.83564 26.6451,-33.44988 81.26512,-128.97605 -61.33941,-180.1849 -39.29817,-195.67084 30.42113,-21.37356 49.80571,-57.48641 51.45932,-82.17636 1.32601,-19.7999 -6.44083,-42.91976 -12.21581,-57.11633 16.1218,-30.1516 34.51302,-64.15243 39.29815,-94.58343 3.7832,-24.05933 0.093,-45.95604 -3.44336,-67.71964 -0.79066,-4.79692 -2.32446,-6.7678 -1.01112,-9.01835 5.49069,-8.98126 25.41378,-8.9107 29.43258,-14.21072 -4.61635,-8.26158 -12.26678,-29.02847 -18.93849,-31.48226 -21.24588,26.13534 -108.53235,40.82793 -116.54728,73.60077 5.12118,3.21041 11.23285,0.19266 15.79105,-0.77069 -15.53466,23.23301 -12.35765,67.26217 -9.08002,79.00225 -7.77838,5.44319 -44.96898,6.81083 -54.93039,8.57795 -2.90668,0.51562 -1.87941,-4.74245 -1.68484,-9.91288 0.9779,-5.36765 -0.63444,-27.21108 0.29594,-28.46389 3.34071,0.68228 8.33887,1.64005 10.16738,-0.46454 -10.05158,-35.08216 -66.41452,-46.12413 -93.21903,-66.7757 -6.69462,2.82607 -23.43941,23.87668 -21.12476,29.05007 2.00112,4.16101 14.12887,5.21662 24.97801,9.20971 2.8035,15.79726 -2.33432,35.00686 -2.99115,55.61967 -0.75376,23.65552 6.58607,47.81 8.45682,63.83256 1.37542,3.94682 -3.27967,10.59036 -7.5699,16.56096 -32.43171,59.10339 -6.68229,106.28741 44.76382,131.61338 10.36238,5.82448 28.74363,10.67607 28.77679,12.27039 -78.54341,95.35063 -40.24744,171.63169 13.88279,216.95967 -27.08444,4.82089 -55.74885,15.58211 -85.61974,26.86379 -26.29774,-34.79654 -37.69282,-78.61608 -48.01594,-120.6273 -1.98714,-11.10826 -7.717,-43.61401 -6.0668,-64.11228 5.73292,-33.58947 0.29917,-69.75093 -19.62183,-95.37591 -23.99044,-30.40302 -60.58182,-68.81399 -48.69902,-115.95421 25.81903,-68.9596 75.49085,-133.03428 120.32663,-182.99066 43.93157,-56.06858 109.32859,-67.3603 165.25444,-67.52827 z M 239.83839,221.6961 c 5.91473,13.37174 7.07931,24.78676 2.51421,24.78676 -5.60227,-27.7265 -34.14381,-41.32132 -48.43308,-38.33812 -34.65995,7.2361 -53.14474,54.92961 -49.52858,97.45051 1.53407,18.03898 17.29295,37.1941 18.7915,53.75366 0,4.75609 -5.68693,4.48771 -10.05682,-0.46454 -10.56746,-18.88068 -19.82622,-42.93058 -19.52678,-67.09672 -6.77946,-61.61714 67.23156,-128.59282 106.23955,-70.09155 z m -30.47621,15.79036 c 7.59333,-7.07467 18.94977,4.38041 20.88418,14.05219 1.92506,9.62543 -2.95854,23.21178 -13.00829,36.10069 -9.82474,12.59999 -30.4798,42.80318 -34.26966,50.14756 -3.95337,7.66051 -9.6919,7.60287 -16.47903,-0.19134 -20.51557,-35.82943 -17.7963,-73.70832 5.08754,-81.06846 3.3129,-23.54093 5.82361,-19.29993 11.71061,-20.62944 8.71873,-1.96896 16.61484,10.22544 26.07465,1.5888 z m 269.5992,30.5858 c 11.15626,-0.35794 12.75223,18.60854 13.60951,36.64735 4.11867,25.06292 -22.04685,116.76494 -42.93286,109.61402 -18.91025,-15.37191 -50.7472,-50.1306 -50.14746,-62.60928 -1.61101,-23.30351 4.67328,-48.65607 18.33727,-63.53844 13.89426,-7.84721 41.2148,-13.78949 55.74982,-18.71996 2.01022,-0.89951 3.78993,-1.34253 5.38372,-1.39369 z m -37.68574,32.0288 c -4.5665,0.34833 -15.32398,12.19396 -22.54591,25.11481 -8.18006,14.63539 -8.63138,27.82427 -1.22984,35.22618 5.99388,5.99362 12.51035,5.2934 23.69372,-2.56886 14.01449,-9.85211 18.82133,-36.43407 8.99099,-49.6009 -2.952,-3.95348 -6.57026,-7.59204 -8.06183,-8.0892 -0.24643,-0.0822 -0.54272,-0.10537 -0.84713,-0.0822 z M 273.3976,313.54661 c 15.41276,4.20708 45.2002,17.11411 59.41181,24.78685 10.35862,25.72747 -15.5406,65.42362 -37.68574,74.87967 -38.68836,6.39936 -35.39435,-69.42615 -21.72607,-99.66652 z m 165.49562,6.53055 c 8.80864,3.29954 9.40961,4.61435 4.02694,14.98872 -6.72505,12.96237 -15.4675,15.71803 -15.16816,0.86969 0.34842,-17.28438 5.63568,-15.85841 11.14122,-15.85841 z m -133.68543,25.03373 c -3.26156,0.0603 -6.14524,1.94482 -8.36247,4.15392 -9.46086,9.46049 -9.13738,19.82367 -3.38873,30.49841 12.45946,19.78617 25.83942,-5.24896 25.3607,-14.89398 -0.59212,-9.87021 -2.92443,-14.62727 -7.37864,-17.57207 -2.16842,-1.59222 -4.27399,-2.22257 -6.23086,-2.18628 z m 2.19064,10.5135 c 5.8759,2.95103 4.80532,6.33065 3.59868,10.77296 -1.45072,5.34079 -4.17385,11.14193 -9.56063,5.27923 -5.03297,-5.70879 -0.75025,-16.05219 5.96195,-16.05219 z m 109.25774,47.53191 c -1.82973,24.5726 -40.27392,37.22923 -34.87436,32.95798 7.44677,-7.82807 17.93674,-37.13088 8.93631,-31.15432 -10.50746,6.61976 -19.82954,12.64257 -30.44368,12.35241 3.63595,-7.26313 12.30675,-12.09654 19.18442,-15.68647 -44.5983,-16.18616 -97.64071,32.32361 -47.58045,-11.05919 13.61261,-10.89217 39.04082,-12.81703 60.42869,-12.08648 17.20114,0.58755 23.9196,9.39554 24.34907,24.67607 z m 13.30545,13.33622 c 0.17622,-0.0114 0.35286,2.6e-4 0.49199,0.0272 23.59019,9.35058 34.67237,63.74633 29.10466,89.19979 -5.53187,32.20364 -32.33176,57.87618 -65.09613,70.42519 -33.91712,12.99054 -65.89969,3.78171 -92.77967,-10.93133 -46.70365,-25.56386 -71.96605,-77.56904 -21.89004,-129.23587 13.22455,-14.34716 22.99332,-15.86137 37.2212,-5.71158 4.94787,3.5296 15.25647,10.12932 22.90115,14.62061 7.64458,4.49157 13.94796,9.61566 14.01949,11.42325 0.0726,1.80761 0.7518,16.12968 1.53037,31.81028 1.35305,27.27421 1.13643,29.00496 -5.5204,40.36392 -4.66287,7.95678 -5.79772,9.83699 -16.80688,16.88891 -17.54104,11.2361 -21.57435,16.65586 -5.90293,9.18233 l 5.95758,-2.21356 5.87565,7.35138 6.1761,6.36746 2.62353,-5.52034 c 1.68736,-3.54253 3.76571,-10.66469 4.72783,-15.79578 2.3038,-12.27946 9.52759,-18.76516 18.41932,-16.53368 7.27327,1.82572 11.87126,10.3838 11.9698,22.24527 l 0.0542,7.10546 5.19238,-6.61355 c 9.38259,-15.75432 19.43426,-28.58458 6.55881,-29.13202 -9.33396,0 -24.39716,1.71807 -28.06617,-5.13773 -2.00261,-3.74183 -2.54944,-23.3962 -1.94035,-36.81123 1.08438,-23.87491 1.37595,-24.34496 24.75948,-35.90953 7.2807,-3.60078 18.54277,-11.41703 25.03276,-17.38083 6.08429,-5.5908 12.74375,-9.9183 15.38581,-10.08409 z m -324.63857,41.81167 c 16.80706,-4.62702 11.21354,17.52423 5.76597,20.88723 -18.478673,-4.21852 -19.029181,-12.55607 -5.76597,-20.88723 z m -7.415727,21.90771 c 1.387747,0.0463 3.698117,1.44372 4.368157,2.66409 2.50625,4.26234 -5.695136,16.09749 -6.390458,17.17181 -22.723538,35.10945 -41.006767,78.99693 -56.698482,116.91512 -5.229376,9.24713 -25.737614,37.49473 -23.994284,24.95083 5.4104,-24.30641 19.272122,-40.33542 31.529736,-63.36181 6.323996,-11.6054 44.763122,-84.98685 50.11948,-97.60221 0.234538,-0.55252 0.603233,-0.75323 1.065851,-0.73783 z m -50.77545,69.61792 c 4.399381,0.26654 2.475379,11.72241 -5.383727,27.95693 -6.071439,12.54271 -12.18844,11.72311 -12.18844,1.42108 0,-6.90983 8.941833,-24.50168 13.664171,-27.79296 1.382769,-0.96398 2.524438,-1.46954 3.443457,-1.55777 0.155049,-0.0148 0.322693,-0.0357 0.464539,-0.0272 z M 388.50458,529.87786 c 0.5442,0.009 1.179,0.18636 1.85832,0.51926 5.18548,2.04312 0.96046,12.80455 -4.23594,16.53362 -0.21207,-0.063 -4.04152,-17.12005 2.37762,-17.05288 z M 72.738572,567.92117 c 8.408211,2.31143 -11.021061,32.51994 -18.473958,34.05112 -0.426672,-11.60077 15.023679,-34.05112 18.473958,-34.05112 z m 10.958709,4.94648 c 28.623049,6.15732 100.315129,-9.34095 110.382899,19.00766 5.67205,26.92826 6.05787,45.81133 -1.79152,50.57117 -14.33204,8.69085 -42.99295,-12.46863 -59.05817,-20.43626 -18.28078,-10.02026 -51.751483,-9.80086 -76.815726,-16.31516 11.581796,3.19624 25.484968,-28.24165 27.282517,-32.82741 z M 345.48976,543.97928 c 0.51534,0.0254 0.93774,0.14429 1.20245,0.38258 3.12689,2.81645 -0.29777,7.27102 -2.18627,13.60962 -1.53205,-2.22615 -4.43681,-3.28272 -5.24703,-7.05079 -0.56791,-2.63892 0.17978,-3.7282 0.76519,-4.42721 1.53388,-1.71814 3.91972,-2.58933 5.46566,-2.5142 z m 372.29404,27.61534 c -3.24976,1.097 -9.7358,-4.24476 -10.71279,-6.79105 -0.79415,-14.70082 14.03505,-20.79107 19.76752,-17.43784 6.13135,3.58661 3.52312,19.045 -9.05473,24.22889 z M 566.71264,558.87327 c 1.88851,-1e-4 4.31857,10.23811 9.51027,18.61065 12.07807,19.47744 38.89718,45.46526 48.28923,52.85301 8.47982,6.66959 9.52478,13.2542 2.10422,13.2542 -14.15494,0 -26.59043,14.135 -26.59043,30.19785 -25.26931,-13.75818 -46.10251,-50.95576 -45.55639,-65.53337 1.39424,-9.9301 4.85036,-47.30888 12.2431,-49.38234 z m 137.35235,11.77855 c 5.54733,0 7.91287,8.93222 0.13659,16.12372 -28.18292,35.05611 -75.09952,72.80936 -89.22699,110.46116 -2.39965,4.65361 -6.44592,8.14148 -9.89295,11.86041 -7.26165,7.83568 -12.48902,5.34193 -12.48902,-1.50301 23.74479,-29.37634 50.1904,-66.45501 78.8696,-99.72109 12.02062,-13.94286 20.47264,-28.82155 32.60277,-37.22119 z m -315.97038,20.22299 c 6.74769,-0.0735 13.20173,0.74524 19.10255,2.59614 38.73287,15.20007 66.12173,54.89167 68.73081,93.32632 2.78374,41.01088 -21.25304,81.09434 -44.05328,105.29607 -24.43346,24.38842 -61.3143,22.70518 -95.51259,-9.12767 -52.46579,-51.71205 -49.61112,-141.48709 5.87563,-180.53102 14.76623,-6.9602 31.01203,-11.39824 45.85688,-11.55984 z m 237.01874,57.49883 c 0.69935,-0.0315 1.34482,0.11804 1.88569,0.43723 5.14946,3.03875 -2.04519,10.16187 -9.89293,20.35959 -9.05447,11.87133 -14.87441,7.82675 -9.97481,-2.4049 4.8084,-9.82457 13.08673,-18.17103 17.98205,-18.39192 z m 20.52355,13.41816 c 2.27012,0.0272 2.59622,5.2557 2.59622,10.11149 0,4.92102 -5.36211,15.32372 -11.14996,20.93351 -9.01327,8.73624 -15.87781,11.68481 -15.87773,5.43838 2.07145,-13.17733 15.41827,-35.50026 24.43147,-36.48338 z m -271.67101,63.89366 c -1.62386,0.0158 -5.14245,4.41425 -0.40998,8.14384 10.31841,8.13215 16.59772,8.70835 8.17123,17.13484 -4.16537,4.1651 -5.18915,6.47685 -2.84215,6.47685 5.67984,0 17.27152,-11.8737 17.27152,-18.7746 0,-6.13003 -16.21852,-13.03891 -22.19062,-12.98093 z m 50.55744,84.90912 c 41.21017,0.0114 120.28808,29.30796 119.56153,49.35506 -27.13122,27.28304 -150.25927,1.78956 -151.45367,-27.1098 -0.37682,-16.09809 13.16003,-22.24684 31.89214,-22.24526 z m -67.17307,5.98495 c 2.60305,0.0192 5.10773,0.21145 7.51534,0.62851 21.99184,3.80943 26.31985,18.95353 12.13378,29.2687 -41.21437,25.36928 -123.79582,30.7046 -130.68613,16.8359 -3.12078,-6.28157 14.3246,-20.52913 49.35698,-31.59321 20.87589,-6.45213 43.45854,-15.27248 61.68003,-15.1399 z"
       id="path3391"
       inkscape:connector-curvature="0"
       sodipodi:nodetypes="ccccccccccccscccccccsscccsccccccsccscccccccccccccsscsccccccsccccccccscssscsccccccccsccccccsccccccccccccccssccccccccccsccsccscccccccccccccccsscccsccccsccccccccscscsccccscccccccccccccsscscccscccccsccscccccccccsccscccccscccccccccccscscccccscscsccccscccsccscccccsscsccccssccscscscc" />
    <path
       style="fill:#a8611f;fill-opacity:1"
       d="m 417.55061,187.93329 c -34.52256,-0.27944 -69.36259,5.28993 -100.77636,20.00201 -36.05921,15.79112 -60.15239,48.2271 -85.02825,77.35676 -38.501,46.72332 -74.59286,97.11805 -94.94721,154.55233 -6.33394,23.51136 1.79085,48.57003 14.28072,68.5496 16.85733,29.01269 44.9489,52.15416 52.2123,86.09043 6.20187,31.30541 -0.94502,63.54202 3.96045,95.06908 5.36874,36.47156 15.24204,72.50677 29.56729,106.50355 6.03214,14.20796 14.04288,27.39252 22.71637,40.18328 8.73704,-7.63746 86.58783,-22.65054 86.80545,-28.18552 -21.20094,-22.78128 -44.19022,-49.70168 -52.49654,-75.33488 -6.02125,-18.49488 -4.87895,-38.5065 -3.28092,-57.58772 5.88463,-30.36165 22.61548,-57.15298 40.27704,-81.9914 3.50718,-4.92279 -5.33779,-5.44444 -8.28039,-7.34298 -30.19128,-11.17653 -60.55808,-30.89947 -72.4924,-62.02475 -8.71818,-24.11681 -3.46618,-51.53857 7.93667,-73.8985 3.39095,-6.70295 10.04174,-12.5987 8.21789,-20.87281 -2.64095,-22.73324 -9.34576,-45.2835 -6.47353,-68.39745 0.73853,-12.69834 1.5121,-25.41148 1.65037,-38.12918 0.0446,-4.10119 -0.28624,-8.20286 -0.3013,-12.30465 -7.72444,-3.12002 -17.39943,-3.20515 -23.68503,-8.96783 -0.79691,-6.35721 5.35949,-11.3046 8.40694,-16.3714 3.38777,-3.73727 7.19473,-9.6574 11.79014,-10.30946 23.70138,16.41175 52.24253,24.99945 75.01171,42.89792 5.91955,5.86799 14.22799,12.60836 14.68595,21.65398 -4.43938,-0.98045 -8.86257,-1.61005 -9.01726,5.6238 -0.2969,11.89476 -0.58292,23.78981 -0.88795,35.68437 19.53189,-2.96549 39.55165,-3.47626 58.68135,-8.84282 -1.15957,-27.18492 -4.38395,-56.86774 10.64083,-81.13391 -1.44026,-1.52969 -8.01979,1.10472 -11.73447,0.98606 -2.19537,0.56096 -5.59633,-0.33044 -3.53088,-3.09343 10.32237,-16.35644 29.3341,-24.0942 46.12516,-32.42506 22.39337,-10.43014 46.54395,-18.64013 66.02426,-33.94187 3.78316,-5.10933 6.47844,2.99856 8.71291,5.74829 3.47428,7.07369 8.79549,13.78502 10.31142,21.52899 -9.44198,8.0165 -24.83416,4.53 -27.79463,15.31533 -1.72137,6.76288 1.91667,14.7949 2.14107,21.5558 4.42348,26.40712 4.39695,54.20178 -5.40449,79.41074 -8.62477,24.06039 -20.90505,46.74093 -32.06032,69.79237 6.92213,19.48476 12.73573,39.90978 11.59253,60.80613 -5.5672,27.78811 -21.55376,53.12713 -42.93262,71.46096 -3.25475,3.78722 -10.82222,6.20268 -9.87435,12.15527 5.60679,11.17117 16.18098,19.03215 24.2787,28.46577 18.08372,18.49386 34.73961,40.32642 39.53883,66.34112 4.96869,25.46426 0.32307,52.5647 -12.10222,75.18467 -10.09825,19.63457 -23.34834,37.51249 -37.59179,54.35993 31.70466,4.89431 64.15355,9.75413 93.08399,24.24746 15.71609,-10.58855 22.40533,-29.86892 24.43495,-47.90123 3.93086,-51.20581 -6.742,-102.03844 -5.92005,-153.23391 0.59307,-13.74836 -2.29633,-27.99252 3.26202,-41.034 12.94438,-46.43271 30.0489,-91.6454 42.29518,-138.23128 9.14268,-35.24484 10.6154,-72.69571 4.22462,-108.56017 -5.92959,-25.89348 -15.15826,-51.40664 -27.28381,-75.10603 -12.24311,-22.11107 -29.75227,-41.28832 -49.83122,-56.53554 -28.36118,-20.45295 -65.63907,-19.44181 -99.13912,-19.76822 z"
       id="path3125"
       inkscape:connector-curvature="0"
       sodipodi:nodetypes="ccccccccccccccccccscccccccccccccccccccccccccccccccccccc" />
    <path
       style="fill:#a8611f;fill-opacity:1"
       d="m 82.085774,573.45538 c -8.047176,12.23296 -12.984719,29.04168 -25.561983,32.31095 -0.183095,3.62819 10.418907,3.11618 13.09916,4.04177 24.373292,4.31122 50.154669,5.05746 71.797009,18.2923 14.66415,6.62786 28.81089,18.82461 45.87353,17.12871 8.97998,-1.1299 12.72143,-11.24961 11.81127,-19.27923 -0.49378,-14.17451 0.0265,-30.09281 -8.81158,-41.96435 -11.55285,-10.97534 -29.02081,-9.62959 -43.83749,-10.86168 -21.26178,-0.66217 -42.53831,-0.56117 -63.807476,-0.76211 l -0.457299,0.8892 z"
       id="path3129"
       inkscape:connector-curvature="0"
       sodipodi:nodetypes="ccccccccccc" />
    <path
       style="fill:#a8611f;fill-opacity:1"
       d="m 353.93228,815.46125 c -23.65865,2.12028 -46.08225,11.16183 -68.43083,18.69268 -13.5864,5.74591 -29.09751,10.50088 -38.55796,22.45926 -2.69678,2.97534 -3.21385,7.94533 1.03114,9.90525 11.05886,7.20778 25.1963,4.37772 37.71372,4.91908 28.69017,-1.02339 57.58867,-6.98435 83.50662,-19.4062 7.83825,-4.25524 18.96732,-10.73595 16.82768,-21.25917 -3.46671,-11.3338 -16.92906,-14.71052 -27.40337,-15.3109 -1.56099,-0.0563 -3.12597,-0.0546 -4.687,0 z"
       id="path3133"
       inkscape:connector-curvature="0" />
    <path
       style="fill:#a8611f;fill-opacity:1"
       d="m 421.80016,809.49314 c -11.98235,0.024 -26.63215,4.48926 -29.90311,17.43567 -3.17232,10.82505 6.74199,19.40613 15.1859,24.09122 22.17844,12.4874 47.81298,17.96419 72.92986,21.02903 15.71633,0.33523 31.9617,1.12264 47.30754,-2.24974 6.02028,-2.45993 14.22261,-3.70743 17.59191,-9.90523 0.36343,-7.11004 -6.78996,-12.11596 -11.74878,-16.21703 -24.69925,-16.90026 -54.10129,-25.52254 -83.14752,-31.62169 -9.30037,-1.68848 -18.73735,-2.93723 -28.2158,-2.56223 z"
       id="path3137"
       inkscape:connector-curvature="0" />
    <path
       style="fill:#a8611f;fill-opacity:1"
       d="m 565.56634,558.86316 c -6.41974,4.87854 -6.37112,14.4498 -8.44284,21.64856 -2.311,14.56151 -6.74679,30.37466 0.31869,44.25078 2.72588,4.54063 6.1212,10.89479 10.4574,17.39167 9.682,14.50639 22.54126,30.27473 32.3853,32.05686 2.91446,-1.3585 1.50707,-7.97157 3.12123,-10.60885 3.86512,-10.35396 13.60062,-19.07851 24.96614,-18.74804 4.27052,-0.45715 5.99085,-6.11879 2.31226,-8.65533 -19.51789,-23.53253 -46.46707,-42.10343 -58.86883,-70.86759 -1.69675,-2.08144 -2.85276,-7.08793 -6.24935,-6.46806 z"
       id="path3141"
       inkscape:connector-curvature="0"
       sodipodi:nodetypes="cccscccccc" />
    <path
       style="fill:#a8611f;fill-opacity:1"
       d="m 624.52892,646.94767 c -9.28535,3.59976 -15.15273,13.01286 -19.248,21.71647 -2.19099,3.54399 -0.024,10.70635 5.03072,8.03042 7.87034,-5.35777 13.87453,-13.63517 18.68555,-21.77897 2.08989,-3.49916 -0.15119,-8.36444 -4.46827,-7.96792 z"
       id="path3145"
       inkscape:connector-curvature="0" />
    <path
       style="fill:#a8611f;fill-opacity:1"
       d="m 644.05811,661.32117 c -7.71538,2.4428 -11.63664,10.85745 -16.06082,17.06072 -3.66855,6.8616 -8.56637,14.3402 -7.68669,22.43513 3.18425,4.44064 9.31449,0.054 12.34245,-2.37474 9.41867,-8.03822 18.98257,-20.04292 16.09207,-33.34026 -0.59533,-2.06721 -2.35351,-4.07611 -4.68701,-3.78085 z"
       id="path3149"
       inkscape:connector-curvature="0" />
    <path
       style="fill:#a8611f;fill-opacity:1"
       d="m 46.495754,548.48924 c -7.533442,2.56093 -10.633472,11.24503 -14.115996,17.66522 -2.062857,6.01662 -6.659689,13.98896 -2.132301,19.89335 4.40174,4.42953 9.658564,-1.79928 11.530042,-5.68691 4.294731,-9.11958 9.419824,-18.7589 8.624096,-29.0907 -0.457302,-1.74357 -2.059007,-3.09126 -3.905841,-2.78096 z"
       id="path3153"
       inkscape:connector-curvature="0" />
    <path
       style="fill:#a8611f;fill-opacity:1"
       d="m 72.149315,566.17489 c -7.281398,4.06703 -10.793139,12.65424 -14.904687,19.56044 -3.133546,5.84211 -4.986742,12.37543 -5.280698,19.09176 11.112495,-3.38183 16.657213,-14.80117 21.935202,-24.21621 1.933934,-3.97279 5.665236,-13.90581 -1.749817,-14.43599 z"
       id="path3157"
       inkscape:connector-curvature="0" />
    <path
       style="fill:#a8611f;fill-opacity:1"
       d="m 200.35463,197.86975 c -24.94642,2.01181 -44.5594,21.64596 -56.39135,42.39795 -10.40367,17.98385 -14.06178,39.25839 -11.16095,59.83223 1.45877,20.76275 8.72473,40.89208 19.15113,58.62795 1.88484,3.94635 9.33804,7.95634 11.43629,2.12478 0.91314,-11.82912 -6.51689,-22.27597 -10.39664,-33.01532 -5.00504,-9.8578 -7.90065,-20.53699 -6.78258,-31.63397 -1.14125,-23.64154 5.13335,-47.91945 19.17901,-67.08689 9.90605,-13.48797 27.33623,-24.04169 44.21411,-17.49817 14.14245,4.80484 25.98271,17.27846 30.30933,31.37171 -0.70394,4.26648 5.8801,5.40712 5.99937,0.84366 1.61523,-24.39634 -21.45826,-46.92709 -45.55772,-45.96393 z"
       id="path3161"
       inkscape:connector-curvature="0" />
    <path
       style="fill:#a8611f;fill-opacity:1"
       d="m 556.69227,153.06194 c -17.22858,-0.21601 -33.9397,10.55635 -41.55814,25.80981 -0.90256,5.1542 5.63284,2.8974 7.96791,1.18737 13.19443,-5.57761 27.46641,-10.91213 41.96435,-10.18644 18.25386,2.93187 34.87997,15.80905 40.32246,33.93019 7.97054,20.40772 6.00323,43.32846 3.32922,64.68448 -2.165,15.23509 -11.04359,28.62939 -12.9674,43.93289 -0.40042,4.7732 5.43196,6.50743 8.71785,3.93708 11.32604,-7.12281 15.64429,-20.92269 20.0604,-32.80905 6.20012,-20.37546 7.939,-42.6125 3.84515,-63.59452 -6.62798,-29.34111 -27.35239,-56.81347 -56.65213,-65.86066 -4.91386,-1.13285 -10.00333,-1.08021 -15.02967,-1.03115 z"
       id="path3165"
       inkscape:connector-curvature="0" />
    <path
       style="fill:#d98a48;fill-opacity:1"
       d="m 387.49126,589.76617 c -16.61315,1.03142 -33.77296,4.53672 -47.99498,13.49858 -20.72676,15.66077 -34.93588,39.2276 -39.59821,64.84879 -9.79331,49.69481 12.50679,105.20862 56.19023,131.19316 18.07587,10.48534 42.18052,15.73411 61.18109,4.78075 20.29066,-11.70196 33.46816,-32.22554 44.52658,-52.33826 13.86382,-26.62173 21.02207,-58.86015 10.76154,-88.03852 -9.90341,-30.72771 -32.89022,-57.47255 -62.66235,-70.41362 -7.09162,-2.91582 -14.75823,-3.82362 -22.4039,-3.53088 z m -12.96739,137.67306 c 6.99286,1.22315 15.63884,3.79279 19.37297,10.12394 0.79229,6.99934 -5.78113,12.86297 -10.81137,16.68575 -2.71558,1.66156 -3.76934,0.94307 -1.03114,-1.59358 2.65239,-3.03208 7.7163,-8.16847 2.84345,-11.59253 -3.46247,-4.18658 -10.56212,-6.09353 -11.87375,-11.65503 0.0307,-0.99599 0.43113,-2.03693 1.49984,-1.96855 z"
       id="path3169"
       inkscape:connector-curvature="0" />
    <path
       style="fill:#d98a48;fill-opacity:1"
       d="m 428.42447,415.62816 c -11.31752,5.76896 -20.40991,15.38323 -31.40296,21.90396 -9.78197,7.04593 -22.499,10.6756 -29.90312,20.49786 -5.58883,14.3677 -3.36421,30.47238 -3.25286,45.5872 0.4444,6.43561 -0.14898,15.99312 7.78364,18.03113 8.54923,3.01049 18.53444,-0.62341 26.6847,3.2809 2.24752,3.88267 -2.41474,8.4541 -3.49963,12.09249 -2.95676,5.53677 -6.26904,10.88909 -10.0302,15.90458 -1.22749,-9.07637 -1.9932,-20.52585 -11.56129,-24.90364 -7.7098,-3.93559 -16.95741,1.24032 -19.37297,9.12404 -3.57229,8.58908 -4.84526,17.95677 -8.90531,26.40349 -4.12613,-3.94327 -7.70702,-8.41203 -11.53005,-12.65492 -3.44786,1.10862 -9.28301,3.74385 -11.40505,3.99958 11.92787,-8.48439 25.44962,-16.19592 31.55919,-30.1531 5.78543,-7.65133 2.07205,-17.62924 3.00481,-26.4654 -0.54753,-14.15427 0.66382,-28.67923 -1.94242,-42.58986 -3.40615,-6.93369 -11.94511,-9.462 -17.64404,-14.18739 -9.86855,-5.85726 -19.09783,-13.22635 -29.63226,-17.71551 -9.7656,-3.11636 -19.67052,1.85528 -26.09364,9.06658 -18.06028,17.84313 -32.97715,42.40615 -29.49428,68.8315 2.87412,26.5717 22.666,48.03646 44.33911,61.58729 23.88846,13.76501 51.94011,24.37073 79.92912,18.81053 37.60072,-6.48706 73.07713,-33.4375 83.39751,-70.93007 6.33034,-24.28478 0.9482,-50.20875 -8.46787,-72.8361 -4.33516,-9.43215 -11.01245,-21.0455 -22.24766,-22.71637 l -0.31247,0.0312 z"
       id="path3173"
       inkscape:connector-curvature="0" />
    <path
       style="fill:#d98a48;fill-opacity:1"
       d="m 213.88446,234.05346 c -5.31214,1.10922 -9.54881,7.09936 -15.40463,4.2183 -7.15064,-2.04223 -16.95043,-6.71328 -23.37256,-0.74993 -3.52595,5.23895 -2.25034,12.70481 -5.65566,17.68566 -6.16647,4.42496 -12.4346,9.49007 -14.87343,17.02947 -7.36592,19.93486 -0.87831,42.04235 8.15539,60.30618 3.08384,5.20967 7.11652,12.4221 13.93604,12.40494 7.2175,-2.96619 9.74056,-11.60751 14.4491,-17.30578 12.39474,-20.45541 29.17786,-38.40006 38.70157,-60.40482 6.00415,-12.52549 -0.74658,-30.35364 -14.90468,-33.21527 -0.34317,0.0153 -0.6909,-0.0306 -1.03114,0.0312 z"
       id="path3177"
       inkscape:connector-curvature="0" />
    <path
       style="fill:#d98a48;fill-opacity:1"
       d="m 555.25492,182.30887 c -11.75256,-0.42555 -23.06292,5.14555 -31.93415,12.27998 -4.64133,4.6689 0.88968,10.31547 3.98598,13.98298 18.93884,22.11989 41.85338,42.29152 51.5082,70.63314 3.19719,5.67643 4.92263,14.44718 11.87376,16.68575 5.67133,-0.65954 6.62265,-8.04376 8.65533,-12.3112 5.96349,-21.59826 2.41836,-44.73482 -2.56223,-66.18056 -1.3414,-7.31708 -11.85119,-5.56077 -15.5743,-9.44737 -1.54895,-12.68503 -11.73536,-27.01417 -25.95259,-25.64272 z"
       id="path3181"
       inkscape:connector-curvature="0" />
    <path
       style="fill:#000000;fill-opacity:1"
       d="m 97.834119,479.52773 c -6.949607,8.19004 -10.544045,19.04871 -15.899617,28.43868 -18.216009,36.23455 -37.582479,71.8484 -57.655168,107.01587 -4.298382,9.13231 -9.885768,18.66726 -10.155186,28.90321 3.006461,4.62014 7.898179,-1.65287 10.061445,-4.06207 14.192039,-14.89613 21.26158,-34.31421 29.214009,-52.91893 13.373475,-31.84866 28.858713,-62.55621 46.840518,-91.94089 2.45569,-4.315 6.72865,-12.07948 0.31246,-15.1859 -0.84962,-0.25955 -1.89641,-0.93152 -2.718461,-0.24997 z"
       id="path3217"
       inkscape:connector-curvature="0" />
    <path
       style="fill:#000000;fill-opacity:1"
       d="m 703.95808,570.01824 c -8.69602,4.56779 -14.09949,13.57384 -20.59561,20.7121 -30.94605,38.24003 -61.87265,76.61476 -91.39265,115.92983 -1.64255,4.81364 3.23146,11.00903 8.21788,7.68668 10.84892,-6.52402 17.10528,-18.24636 22.27893,-29.4969 18.08977,-30.48541 45.10344,-54.5856 68.5553,-81.054 6.42244,-8.09191 15.10859,-14.97142 19.27924,-24.52868 1.06895,-4.00802 -1.41725,-10.08567 -6.34309,-9.24903 z"
       id="path3223"
       inkscape:connector-curvature="0" />
    <path
       style="fill:#bc9f77;fill-opacity:1"
       d="m 722.17492,545.02086 c -9.98991,0.47489 -18.42441,11.10033 -16.46702,20.8728 3.35999,4.52306 9.91359,10.25284 15.52963,5.68691 7.7586,-4.50045 13.9502,-16.105 7.90541,-24.24745 -1.71278,-2.12358 -4.38813,-2.55989 -6.96802,-2.31226 z"
       id="path3248"
       inkscape:connector-curvature="0" />
    <path
       style="fill:#bc9f77;fill-opacity:1"
       d="m 108.80172,456.74886 c -6.76353,0.7699 -14.713405,7.12158 -13.248604,14.56097 2.524658,6.08765 9.971304,8.16869 15.904574,9.18655 4.4447,-3.54406 5.99772,-10.01047 6.46808,-15.46714 -0.13678,-4.80695 -4.19337,-8.82951 -9.12405,-8.28038 z"
       id="path3252"
       inkscape:connector-curvature="0" />
    <path
       style="fill:#dff3fd;fill-opacity:1"
       d="m 274.34687,313.13892 c -5.12633,2.28734 -5.08403,9.52237 -6.87428,14.186 -5.41891,23.50563 -8.12436,49.80901 2.06228,72.36742 4.36133,10.37944 16.62533,18.4818 27.74709,13.40485 16.4221,-8.48593 27.96021,-24.78131 34.87135,-41.62064 2.86621,-11.21266 3.8256,-22.70616 2.15602,-34.27765 -19.48911,-8.70709 -38.8264,-18.72623 -59.46252,-24.09123 l -0.24997,0 -0.24997,0.0312 z m 30.77802,33.80895 c 9.94243,0.17061 12.92335,12.95322 11.59254,20.99781 -1.01777,7.80506 -6.54428,17.95644 -15.31089,17.49817 -8.89084,-5.0408 -11.96775,-17.20835 -9.0928,-26.52848 1.9484,-5.54583 6.4196,-11.50195 12.81115,-11.9675 z"
       id="path3267"
       inkscape:connector-curvature="0"
       sodipodi:nodetypes="ccccccccccccccc" />
    <path
       style="fill:#dff3fd;fill-opacity:1"
       d="m 479.26289,267.26872 c -20.03336,4.31833 -39.97166,10.20667 -58.77509,18.37308 -9.41033,5.56709 -13.59766,16.65815 -17.40443,26.37223 -4.21748,13.82659 -5.88146,28.71776 -4.37454,43.08924 5.19465,14.67421 16.62643,25.97076 26.70786,37.60482 8.15537,8.34878 16.22273,17.31302 25.84914,23.82624 10.92274,-2.66863 16.74993,-13.87404 21.56024,-23.18508 11.39404,-24.82094 19.25528,-51.59911 21.15403,-78.89797 -0.23068,-13.69515 0.23483,-28.27444 -5.49943,-40.96446 -1.75603,-3.34782 -4.94643,-7.14037 -9.21778,-6.2181 z m -38.46472,34.40265 c 7.32869,3.10578 10.80424,11.78593 12.34246,19.12299 3.07669,17.06728 -6.531,36.38447 -23.68503,41.30817 -9.63036,3.39804 -16.30403,-7.90641 -15.34213,-16.21705 1.42283,-17.35981 12.56381,-33.28959 25.80979,-43.74541 0.2751,-0.14126 0.54262,-0.43559 0.87491,-0.4687 z"
       id="path3273"
       inkscape:connector-curvature="0" />
    <path
       style="fill:#ffffff;fill-opacity:1;stroke:url(#linearGradient5333)"
       d="m 381.36759,436.77761 c -0.0412,-0.0666 0.18724,-0.3813 0.55857,-0.76968 4.5325,-4.74059 10.95378,-19.11987 12.13491,-27.1739 0.21998,-1.49999 0.16444,-3.17687 -0.12675,-3.8272 -0.35947,-0.80283 -1.14931,-1.06431 -2.09773,-0.69449 -0.22936,0.0894 -1.55959,0.87404 -2.95608,1.74357 -4.00349,2.49278 -5.51194,3.40265 -7.78403,4.69521 -7.58917,4.31738 -13.29369,6.26064 -18.94936,6.45516 -0.95337,0.0328 -1.7334,0.0351 -1.7334,0.005 0,-0.22774 1.38599,-2.36526 2.23213,-3.44246 0.82228,-1.04683 3.34414,-3.51622 4.65263,-4.55584 2.76509,-2.19691 6.39955,-4.48306 10.91309,-6.86455 0.68481,-0.36133 1.24512,-0.68944 1.24512,-0.72913 0,-0.10443 -3.20954,-1.11526 -4.98047,-1.56858 -11.12615,-2.84804 -23.76504,-2.49565 -38.05714,1.06107 -5.69938,1.41834 -10.61148,3.014 -19.25571,6.2551 -4.20629,1.57711 -5.48012,1.93363 -5.48012,1.53377 0,-0.62478 2.41553,-2.86121 12.86383,-11.91006 7.83613,-6.78654 8.10244,-7.00755 9.79242,-8.12657 8.68819,-5.75293 21.63032,-9.11721 39.0625,-10.15422 4.61816,-0.27473 10.93727,-0.37804 15.68646,-0.25645 4.67109,0.11959 5.95719,0.20058 8.03803,0.50618 5.84268,0.85806 10.13362,2.84153 13.33659,6.16477 1.15719,1.20063 1.90979,2.1927 2.70065,3.55997 2.07146,3.58122 3.31752,8.74429 3.34355,13.85407 0.008,1.6462 -0.0243,2.13139 -0.20825,3.08747 -0.47944,2.49251 -1.26473,4.77333 -2.46739,7.16644 -1.75258,3.48734 -3.8562,6.33281 -7.03502,9.51589 -5.39612,5.40337 -13.17917,10.41907 -20.65048,13.30797 -2.4132,0.9331 -4.59233,1.46275 -4.77855,1.16144 l 0,0 z"
       id="path3115"
       inkscape:connector-curvature="0" />
    <path
       style="fill:#ffffff;fill-opacity:1;stroke:url(#linearGradient5341)"
       d="m 342.66028,555.95637 c -1.00951,-1.02051 -2.02814,-2.14261 -2.26363,-2.49357 -1.21006,-1.80342 -1.6243,-4.45614 -0.9381,-6.00741 0.24355,-0.55058 1.26705,-1.61771 2.04533,-2.13251 1.24939,-0.82642 2.59664,-1.27336 3.82195,-1.26789 0.84685,0.004 1.18336,0.14279 1.6602,0.68588 0.54893,0.6252 0.81404,1.33542 0.86133,2.30748 0.0679,1.39565 -0.21141,2.42383 -1.6638,6.12482 -0.43209,1.10107 -0.98862,2.59521 -1.23672,3.32031 l -0.45109,1.31836 -1.83547,-1.85547 z"
       id="path5335"
       inkscape:connector-curvature="0" />
    <path
       style="fill:#ffffff;fill-opacity:1;stroke:url(#linearGradient5349)"
       d="m 386.05984,546.51451 c -0.3146,-0.96409 -0.90128,-4.58648 -1.08049,-6.67142 -0.1406,-1.63575 -0.122,-4.21654 0.0385,-5.33861 0.291,-2.03477 0.97042,-3.51062 1.8824,-4.08898 0.94413,-0.59875 1.77208,-0.62028 3.15217,-0.082 0.68063,0.26549 0.9371,0.42982 1.42456,0.91276 0.69184,0.68543 0.96511,1.29657 1.13102,2.52937 0.45359,3.37042 -2.05738,9.04523 -5.34693,12.08407 -1.16854,1.07949 -1.0786,1.03046 -1.2012,0.65477 z"
       id="path5343"
       inkscape:connector-curvature="0" />
    <path
       style="fill:#ffffff;fill-opacity:1;stroke:url(#linearGradient5357)"
       d="m 303.99559,373.50099 c -1.35144,-0.66895 -2.82689,-2.2125 -3.72788,-3.89993 -0.54491,-1.02054 -0.63345,-1.59173 -0.63345,-4.0866 0,-2.5564 0.0863,-3.08428 0.72787,-4.45257 0.96045,-2.04835 2.43574,-3.64038 4.17796,-4.50857 1.76344,-0.87876 2.69072,-0.88966 4.00755,-0.0471 3.50409,2.24202 3.9532,4.76219 1.94989,10.94174 -1.12757,3.4782 -2.35051,5.44778 -3.87516,6.24105 -0.98386,0.51191 -1.25149,0.49275 -2.62678,-0.18801 z"
       id="path5351"
       inkscape:connector-curvature="0" />
    <path
       style="fill:#ffffff;fill-opacity:1;stroke:url(#linearGradient5365)"
       d="m 431.25004,345.71703 c -0.72056,-0.27872 -1.69308,-1.29788 -2.22141,-2.32794 -0.88351,-1.72255 -1.18872,-4.45124 -1.00093,-8.94866 0.27025,-6.47242 1.09276,-9.93654 2.84551,-11.98424 1.41305,-1.65082 2.32281,-2.02773 5.26598,-2.18168 2.76508,-0.14463 4.09498,0.20959 7.13226,1.89969 1.883,1.04779 2.63455,1.91662 2.81378,3.25287 0.22517,1.67873 -0.30236,3.35841 -2.397,7.63229 -2.98672,6.09405 -6.08826,10.20362 -8.95782,11.8692 -1.19778,0.69522 -2.78932,1.05579 -3.48037,0.78847 z"
       id="path5359"
       inkscape:connector-curvature="0" />
  </g>
</svg>
